<svg width="700" height="239" viewBox="0 0 700 239" fill="none" xmlns="http://www.w3.org/2000/svg">
<rect width="700" height="239" fill="white"/>
<path d="M136.3 144.47C136.127 144.47 135.823 144.383 135.39 144.21C134.957 144.123 134.74 143.95 134.74 143.69C134.74 143.603 134.783 143.517 134.87 143.43C134.957 143.343 135 143.3 135 143.3C135.607 143.127 135.867 143.04 135.78 143.04C135.78 143.127 136.083 143.083 136.69 142.91C138.163 142.39 139.42 141.653 140.46 140.7C141.587 139.66 142.54 138.447 143.32 137.06C147.393 130.3 151.293 123.453 155.02 116.52C158.747 109.5 162.473 102.523 166.2 95.59C167.24 93.77 168.237 91.9067 169.19 90C170.143 88.0933 171.097 86.1867 172.05 84.28C172.483 83.24 172.917 82.2 173.35 81.16C173.87 80.12 174.433 79.1233 175.04 78.17C175.733 76.9567 176.817 75.9167 178.29 75.05C179.85 74.0967 181.323 73.4033 182.71 72.97H179.59C177.857 72.97 175.473 73.1 172.44 73.36C169.493 73.5333 166.373 73.88 163.08 74.4C159.787 74.92 156.84 75.7 154.24 76.74C151.727 77.78 149.993 79.1667 149.04 80.9C148.173 82.46 147.74 83.9767 147.74 85.45C147.74 87.1833 148.13 88.3533 148.91 88.96C149.69 89.5667 150.08 89.9567 150.08 90.13C150.08 90.3033 149.95 90.4767 149.69 90.65C149.43 90.8233 149.213 90.91 149.04 90.91C148.52 90.91 147.87 90.39 147.09 89.35C146.31 88.31 145.573 87.1833 144.88 85.97C144.273 84.67 143.883 83.8033 143.71 83.37C143.45 82.4167 143.32 81.4633 143.32 80.51C143.32 78.17 144.1 76.3933 145.66 75.18C147.307 73.88 149.3 72.97 151.64 72.45C153.98 71.93 156.32 71.6267 158.66 71.54C161.087 71.3667 163.08 71.28 164.64 71.28C168.973 71.28 173.307 71.1933 177.64 71.02C181.973 70.76 186.263 70.63 190.51 70.63C194.583 70.63 198.57 70.9333 202.47 71.54C206.457 72.06 210.053 73.1433 213.26 74.79C216.467 76.4367 219.023 78.7767 220.93 81.81C222.923 84.8433 223.92 88.83 223.92 93.77C223.92 98.2767 223.053 102.913 221.32 107.68C219.673 112.36 217.593 116.563 215.08 120.29C204.507 136.15 189.687 144.08 170.62 144.08C167.673 144.08 164.64 143.777 161.52 143.17C158.487 142.563 155.627 141.567 152.94 140.18C152.333 139.833 151.683 139.573 150.99 139.4C150.383 139.14 149.733 139.01 149.04 139.01C147.567 139.01 146.093 139.487 144.62 140.44C143.147 141.307 141.717 142.173 140.33 143.04C138.943 143.993 137.6 144.47 136.3 144.47ZM169.06 142.26C175.56 142.26 181.627 141.003 187.26 138.49C192.893 135.977 197.833 132.467 202.08 127.96C206.327 123.367 209.663 118.123 212.09 112.23C213.217 109.457 214.127 106.553 214.82 103.52C215.6 100.487 215.99 97.4967 215.99 94.55C215.99 87.79 213.91 82.59 209.75 78.95C205.677 75.2233 200.303 73.36 193.63 73.36C191.983 73.36 190.25 73.5333 188.43 73.88C186.697 74.2267 185.267 75.05 184.14 76.35C183.013 77.7367 181.93 79.2533 180.89 80.9C179.937 82.5467 178.983 84.15 178.03 85.71C176.037 89.1767 174.13 92.7733 172.31 96.5C170.577 100.14 168.8 103.737 166.98 107.29C164.12 112.75 161.303 118.253 158.53 123.8C157.923 125.013 157.273 126.27 156.58 127.57C155.973 128.783 155.367 129.997 154.76 131.21C154.587 131.643 154.413 132.12 154.24 132.64C154.067 133.073 153.98 133.593 153.98 134.2C153.98 135.327 154.327 136.28 155.02 137.06C155.713 137.84 156.45 138.577 157.23 139.27C158.877 140.483 160.783 141.307 162.95 141.74C165.117 142.087 167.153 142.26 169.06 142.26ZM228.207 143.04C224.654 143.04 222.184 142.347 220.797 140.96C219.41 139.573 218.717 137.883 218.717 135.89C218.717 133.377 219.367 130.69 220.667 127.83C222.054 124.97 223.354 122.543 224.567 120.55C225.954 118.47 227.817 116.303 230.157 114.05C232.497 111.797 235.054 109.89 237.827 108.33C240.6 106.77 243.287 105.99 245.887 105.99C248.14 105.99 249.7 106.553 250.567 107.68C251.434 108.72 251.867 109.977 251.867 111.45C251.867 114.137 251.044 116.347 249.397 118.08C247.837 119.813 245.887 121.243 243.547 122.37C241.207 123.41 238.954 124.277 236.787 124.97C235.487 125.317 233.97 125.663 232.237 126.01C230.504 126.357 228.857 126.53 227.297 126.53C226.69 128.09 226.214 129.607 225.867 131.08C225.52 132.553 225.347 133.897 225.347 135.11C225.347 136.583 225.694 137.797 226.387 138.75C227.167 139.703 228.424 140.18 230.157 140.18C230.85 140.18 231.674 140.093 232.627 139.92C233.58 139.747 234.62 139.487 235.747 139.14C238.347 138.273 240.904 136.887 243.417 134.98C245.93 133.073 248.227 131.037 250.307 128.87C252.474 126.617 254.12 124.753 255.247 123.28C255.507 123.54 255.637 123.843 255.637 124.19C255.637 124.623 255.334 125.317 254.727 126.27C252.994 128.697 250.74 131.21 247.967 133.81C245.194 136.41 242.117 138.62 238.737 140.44C235.357 142.173 231.847 143.04 228.207 143.04ZM228.337 123.93C229.464 124.017 230.72 124.017 232.107 123.93C233.58 123.757 235.01 123.453 236.397 123.02C239.95 121.98 242.507 120.333 244.067 118.08C245.714 115.74 246.537 113.66 246.537 111.84C246.537 110.8 246.32 109.933 245.887 109.24C245.454 108.547 244.76 108.2 243.807 108.2C241.294 108.2 239.04 109.153 237.047 111.06C235.054 112.88 233.32 115.003 231.847 117.43C230.374 119.857 229.204 122.023 228.337 123.93ZM263.83 142.78C262.617 142.78 261.577 142.347 260.71 141.48C259.843 140.613 259.41 139.097 259.41 136.93C259.41 135.023 259.54 132.77 259.8 130.17C260.147 127.57 260.623 124.927 261.23 122.24C261.837 119.467 262.53 117.04 263.31 114.96C261.837 117.127 260.19 119.38 258.37 121.72C256.55 123.973 255.033 125.88 253.82 127.44C253.56 127.787 253.343 127.96 253.17 127.96C252.997 127.96 252.91 127.743 252.91 127.31C252.91 126.617 253.127 125.967 253.56 125.36C255.38 122.847 257.417 119.987 259.67 116.78C262.01 113.573 264.003 110.67 265.65 108.07C266.603 107.897 267.73 107.637 269.03 107.29C270.417 106.943 271.413 106.467 272.02 105.86C272.453 105.6 272.713 105.47 272.8 105.47C273.06 105.47 273.19 105.643 273.19 105.99C273.19 106.25 273.06 106.553 272.8 106.9C272.02 108.027 271.153 109.76 270.2 112.1C269.333 114.44 268.423 117.04 267.47 119.9C266.603 122.76 265.867 125.577 265.26 128.35C264.74 131.037 264.48 133.333 264.48 135.24C264.48 136.627 264.697 137.623 265.13 138.23C265.563 138.75 266.127 139.01 266.82 139.01C267.773 139.01 268.9 138.533 270.2 137.58C271.587 136.627 272.757 135.63 273.71 134.59C274.923 133.29 276.267 131.557 277.74 129.39C279.3 127.223 280.73 124.927 282.03 122.5C283.417 120.073 284.457 117.863 285.15 115.87C285.67 114.483 286.017 113.313 286.19 112.36C286.363 111.32 286.45 110.497 286.45 109.89C286.45 108.85 286.32 108.113 286.06 107.68C285.8 107.247 285.583 106.987 285.41 106.9C284.89 106.727 284.63 106.51 284.63 106.25C284.63 106.077 284.803 105.947 285.15 105.86C285.497 105.687 285.843 105.687 286.19 105.86C287.317 106.207 288.443 106.727 289.57 107.42C290.697 108.027 291.26 109.24 291.26 111.06C291.26 111.493 291.217 112.013 291.13 112.62C291.043 113.14 290.87 113.747 290.61 114.44C290.09 115.827 289.007 117.777 287.36 120.29C285.8 122.803 283.98 125.447 281.9 128.22C279.82 130.993 277.74 133.507 275.66 135.76C273.58 138.013 271.76 139.617 270.2 140.57C269.16 141.177 268.077 141.697 266.95 142.13C265.823 142.563 264.783 142.78 263.83 142.78ZM319.203 145.77C314.61 145.77 310.19 145.077 305.943 143.69C301.783 142.39 298.403 140.18 295.803 137.06C293.203 133.94 291.903 129.737 291.903 124.45C291.903 118.817 292.986 113.313 295.153 107.94C297.32 102.567 300.223 97.5833 303.863 92.99C307.503 88.31 311.576 84.28 316.083 80.9C320.07 77.8667 324.663 75.3967 329.863 73.49C335.15 71.5833 340.393 70.63 345.593 70.63C347.76 70.63 349.796 70.8033 351.703 71.15C353.61 71.41 355.56 72.0167 357.553 72.97C359.286 73.75 360.673 74.7467 361.713 75.96C362.753 77.0867 363.273 78.3867 363.273 79.86C363.273 80.0333 363.273 80.25 363.273 80.51C363.273 80.77 363.23 80.9867 363.143 81.16C362.796 82.5467 361.973 84.15 360.673 85.97C359.46 87.7033 358.506 89.5233 357.813 91.43C357.726 91.7767 357.25 92.08 356.383 92.34C355.516 92.5133 355.17 92.4267 355.343 92.08C356.036 90.9533 356.556 89.5667 356.903 87.92C357.336 86.2733 357.553 84.6267 357.553 82.98C357.553 81.7667 357.423 80.64 357.163 79.6C356.99 78.4733 356.643 77.52 356.123 76.74C355.256 75.18 353.913 74.0967 352.093 73.49C350.273 72.8833 348.323 72.58 346.243 72.58C344.25 72.58 342.256 72.7967 340.263 73.23C338.27 73.6633 336.536 74.14 335.063 74.66C330.036 76.48 325.226 79.34 320.633 83.24C316.56 86.7933 312.92 90.91 309.713 95.59C306.593 100.27 304.123 105.08 302.303 110.02C300.483 114.96 299.573 119.683 299.573 124.19C299.573 128.783 300.57 132.423 302.563 135.11C304.556 137.797 307.156 139.703 310.363 140.83C313.57 141.957 317.036 142.52 320.763 142.52C324.056 142.52 327.306 142.173 330.513 141.48C333.806 140.787 336.796 139.92 339.483 138.88C344.076 137.147 348.193 135.023 351.833 132.51C355.56 129.997 359.026 126.747 362.233 122.76C362.666 122.327 362.97 122.11 363.143 122.11C363.403 122.11 363.533 122.283 363.533 122.63C363.533 123.323 363.186 124.147 362.493 125.1C359.546 129.087 356.21 132.423 352.483 135.11C348.756 137.797 344.77 140.007 340.523 141.74C337.663 142.867 334.326 143.82 330.513 144.6C326.786 145.38 323.016 145.77 319.203 145.77ZM362.018 142.26C360.631 142.26 359.374 142 358.248 141.48C357.208 140.873 356.688 139.617 356.688 137.71C356.688 134.677 357.468 131.643 359.028 128.61C360.588 125.49 362.191 122.76 363.838 120.42C365.311 118.427 366.958 116.563 368.778 114.83C370.684 113.01 372.721 111.45 374.888 110.15C376.274 109.283 378.138 108.373 380.478 107.42C382.904 106.38 384.941 105.86 386.588 105.86C387.974 105.86 389.188 106.25 390.228 107.03C391.268 107.723 391.788 109.023 391.788 110.93C391.788 113.877 391.008 116.91 389.448 120.03C387.974 123.063 386.414 125.75 384.768 128.09C383.988 129.13 383.208 130.127 382.428 131.08C381.648 131.947 380.781 132.857 379.828 133.81C383.034 133.81 385.981 132.9 388.668 131.08C391.354 129.173 393.694 126.877 395.688 124.19L395.948 123.93C396.208 123.93 396.338 124.19 396.338 124.71C396.338 125.317 396.164 125.88 395.818 126.4C394.084 128.827 391.918 130.993 389.318 132.9C386.718 134.72 383.771 135.63 380.478 135.63C380.131 135.63 379.784 135.63 379.438 135.63C379.091 135.63 378.744 135.587 378.398 135.5C373.544 140.007 368.084 142.26 362.018 142.26ZM365.398 140.05C366.611 140.05 367.911 139.617 369.298 138.75C370.771 137.883 371.898 137.06 372.678 136.28C374.151 134.807 375.494 133.247 376.708 131.6C377.921 129.867 379.048 128.133 380.088 126.4C381.301 124.32 382.514 121.85 383.728 118.99C384.941 116.13 385.548 113.443 385.548 110.93C385.548 108.937 384.854 107.94 383.468 107.94C382.341 107.94 380.954 108.417 379.308 109.37C377.748 110.323 376.578 111.19 375.798 111.97C372.851 115.003 370.381 118.297 368.388 121.85C367.261 123.843 366.048 126.183 364.748 128.87C363.448 131.557 362.798 134.027 362.798 136.28C362.798 136.627 362.798 136.973 362.798 137.32C362.884 137.58 362.971 137.883 363.058 138.23C363.404 139.443 364.184 140.05 365.398 140.05ZM395.122 143.95C394.775 143.95 394.775 143.56 395.122 142.78C395.555 142 395.945 141.133 396.292 140.18C396.725 139.227 397.159 138.187 397.592 137.06C398.459 134.98 399.412 132.64 400.452 130.04C401.492 127.44 402.489 124.927 403.442 122.5C404.395 119.987 405.219 117.863 405.912 116.13C406.692 114.31 407.212 113.14 407.472 112.62C406.259 113.92 404.785 115.567 403.052 117.56C401.405 119.467 399.845 121.33 398.372 123.15C396.899 124.97 395.772 126.4 394.992 127.44C394.732 127.787 394.515 127.96 394.342 127.96C394.169 127.96 394.082 127.743 394.082 127.31C394.082 126.617 394.299 125.967 394.732 125.36C396.379 123.28 398.199 120.94 400.192 118.34C402.272 115.74 404.135 113.357 405.782 111.19C407.429 108.937 408.469 107.463 408.902 106.77C409.855 106.597 411.242 106.337 413.062 105.99C414.969 105.643 416.269 105.167 416.962 104.56C417.222 104.3 417.482 104.17 417.742 104.17C417.915 104.17 418.002 104.343 418.002 104.69C418.089 104.95 418.002 105.253 417.742 105.6C417.222 106.207 416.312 107.637 415.012 109.89C413.799 112.057 412.455 114.483 410.982 117.17C409.595 119.857 408.295 122.283 407.082 124.45C408.122 123.063 409.249 121.72 410.462 120.42C411.675 119.12 412.845 117.863 413.972 116.65C415.012 115.61 416.442 114.31 418.262 112.75C420.082 111.19 421.989 109.76 423.982 108.46C425.975 107.16 427.709 106.423 429.182 106.25C429.529 106.163 429.832 106.12 430.092 106.12C430.439 106.12 430.699 106.12 430.872 106.12C432.779 106.12 433.732 106.813 433.732 108.2C433.732 109.24 433.169 110.627 432.042 112.36C431.435 113.313 430.482 114.917 429.182 117.17C427.969 119.337 426.712 121.72 425.412 124.32C424.199 126.833 423.115 129.217 422.162 131.47C421.295 133.637 420.862 135.24 420.862 136.28C420.862 137.493 421.469 138.1 422.682 138.1C424.155 138.1 425.759 137.363 427.492 135.89C429.312 134.417 431.262 132.553 433.342 130.3C435.422 127.96 437.502 125.49 439.582 122.89C439.755 123.063 439.842 123.367 439.842 123.8C439.842 124.407 439.625 125.013 439.192 125.62C438.845 126.14 438.499 126.617 438.152 127.05C437.285 128.177 436.115 129.607 434.642 131.34C433.255 132.987 431.825 134.633 430.352 136.28C428.879 137.84 427.535 139.097 426.322 140.05C425.455 140.657 424.329 141.307 422.942 142C421.555 142.693 420.169 143.04 418.782 143.04C417.222 143.04 416.139 142.65 415.532 141.87C414.925 141.003 414.622 139.963 414.622 138.75C414.622 137.363 414.882 135.89 415.402 134.33C415.922 132.77 416.485 131.297 417.092 129.91C417.785 128.437 418.305 127.353 418.652 126.66C420.212 123.627 421.642 120.767 422.942 118.08C424.242 115.393 425.152 113.487 425.672 112.36C425.932 111.84 426.062 111.407 426.062 111.06C426.062 110.453 425.585 110.41 424.632 110.93C423.679 111.45 422.509 112.23 421.122 113.27C419.822 114.31 418.609 115.35 417.482 116.39C416.355 117.343 415.619 117.993 415.272 118.34C412.065 121.72 409.249 125.49 406.822 129.65C404.482 133.723 402.489 137.927 400.842 142.26C399.715 142.347 398.589 142.65 397.462 143.17C396.335 143.69 395.555 143.95 395.122 143.95ZM438.032 143.95C437.685 143.95 437.685 143.56 438.032 142.78C438.465 142 438.855 141.133 439.202 140.18C439.635 139.227 440.069 138.187 440.502 137.06C441.369 134.98 442.322 132.64 443.362 130.04C444.402 127.44 445.399 124.927 446.352 122.5C447.305 119.987 448.129 117.863 448.822 116.13C449.602 114.31 450.122 113.14 450.382 112.62C449.169 113.92 447.695 115.567 445.962 117.56C444.315 119.467 442.755 121.33 441.282 123.15C439.809 124.97 438.682 126.4 437.902 127.44C437.642 127.787 437.425 127.96 437.252 127.96C437.079 127.96 436.992 127.743 436.992 127.31C436.992 126.617 437.209 125.967 437.642 125.36C439.289 123.28 441.109 120.94 443.102 118.34C445.182 115.74 447.045 113.357 448.692 111.19C450.339 108.937 451.379 107.463 451.812 106.77C452.765 106.597 454.152 106.337 455.972 105.99C457.879 105.643 459.179 105.167 459.872 104.56C460.132 104.3 460.392 104.17 460.652 104.17C460.825 104.17 460.912 104.343 460.912 104.69C460.999 104.95 460.912 105.253 460.652 105.6C460.132 106.207 459.222 107.637 457.922 109.89C456.709 112.057 455.365 114.483 453.892 117.17C452.505 119.857 451.205 122.283 449.992 124.45C451.032 123.063 452.159 121.72 453.372 120.42C454.585 119.12 455.755 117.863 456.882 116.65C457.922 115.61 459.352 114.31 461.172 112.75C462.992 111.19 464.899 109.76 466.892 108.46C468.885 107.16 470.619 106.423 472.092 106.25C472.439 106.163 472.742 106.12 473.002 106.12C473.349 106.12 473.609 106.12 473.782 106.12C475.689 106.12 476.642 106.813 476.642 108.2C476.642 109.24 476.079 110.627 474.952 112.36C474.345 113.313 473.392 114.917 472.092 117.17C470.879 119.337 469.622 121.72 468.322 124.32C467.109 126.833 466.025 129.217 465.072 131.47C464.205 133.637 463.772 135.24 463.772 136.28C463.772 137.493 464.379 138.1 465.592 138.1C467.065 138.1 468.669 137.363 470.402 135.89C472.222 134.417 474.172 132.553 476.252 130.3C478.332 127.96 480.412 125.49 482.492 122.89C482.665 123.063 482.752 123.367 482.752 123.8C482.752 124.407 482.535 125.013 482.102 125.62C481.755 126.14 481.409 126.617 481.062 127.05C480.195 128.177 479.025 129.607 477.552 131.34C476.165 132.987 474.735 134.633 473.262 136.28C471.789 137.84 470.445 139.097 469.232 140.05C468.365 140.657 467.239 141.307 465.852 142C464.465 142.693 463.079 143.04 461.692 143.04C460.132 143.04 459.049 142.65 458.442 141.87C457.835 141.003 457.532 139.963 457.532 138.75C457.532 137.363 457.792 135.89 458.312 134.33C458.832 132.77 459.395 131.297 460.002 129.91C460.695 128.437 461.215 127.353 461.562 126.66C463.122 123.627 464.552 120.767 465.852 118.08C467.152 115.393 468.062 113.487 468.582 112.36C468.842 111.84 468.972 111.407 468.972 111.06C468.972 110.453 468.495 110.41 467.542 110.93C466.589 111.45 465.419 112.23 464.032 113.27C462.732 114.31 461.519 115.35 460.392 116.39C459.265 117.343 458.529 117.993 458.182 118.34C454.975 121.72 452.159 125.49 449.732 129.65C447.392 133.723 445.399 137.927 443.752 142.26C442.625 142.347 441.499 142.65 440.372 143.17C439.245 143.69 438.465 143.95 438.032 143.95ZM487.572 143.04C484.019 143.04 481.549 142.347 480.162 140.96C478.776 139.573 478.082 137.883 478.082 135.89C478.082 133.377 478.732 130.69 480.032 127.83C481.419 124.97 482.719 122.543 483.932 120.55C485.319 118.47 487.182 116.303 489.522 114.05C491.862 111.797 494.419 109.89 497.192 108.33C499.966 106.77 502.652 105.99 505.252 105.99C507.506 105.99 509.066 106.553 509.932 107.68C510.799 108.72 511.232 109.977 511.232 111.45C511.232 114.137 510.409 116.347 508.762 118.08C507.202 119.813 505.252 121.243 502.912 122.37C500.572 123.41 498.319 124.277 496.152 124.97C494.852 125.317 493.336 125.663 491.602 126.01C489.869 126.357 488.222 126.53 486.662 126.53C486.056 128.09 485.579 129.607 485.232 131.08C484.886 132.553 484.712 133.897 484.712 135.11C484.712 136.583 485.059 137.797 485.752 138.75C486.532 139.703 487.789 140.18 489.522 140.18C490.216 140.18 491.039 140.093 491.992 139.92C492.946 139.747 493.986 139.487 495.112 139.14C497.712 138.273 500.269 136.887 502.782 134.98C505.296 133.073 507.592 131.037 509.672 128.87C511.839 126.617 513.486 124.753 514.612 123.28C514.872 123.54 515.002 123.843 515.002 124.19C515.002 124.623 514.699 125.317 514.092 126.27C512.359 128.697 510.106 131.21 507.332 133.81C504.559 136.41 501.482 138.62 498.102 140.44C494.722 142.173 491.212 143.04 487.572 143.04ZM487.702 123.93C488.829 124.017 490.086 124.017 491.472 123.93C492.946 123.757 494.376 123.453 495.762 123.02C499.316 121.98 501.872 120.333 503.432 118.08C505.079 115.74 505.902 113.66 505.902 111.84C505.902 110.8 505.686 109.933 505.252 109.24C504.819 108.547 504.126 108.2 503.172 108.2C500.659 108.2 498.406 109.153 496.412 111.06C494.419 112.88 492.686 115.003 491.212 117.43C489.739 119.857 488.569 122.023 487.702 123.93ZM517.995 143.04C514.789 143.04 512.535 142.433 511.235 141.22C509.935 140.007 509.285 138.447 509.285 136.54C509.285 134.027 510.109 131.253 511.755 128.22C513.402 125.1 514.962 122.5 516.435 120.42C517.909 118.427 519.555 116.563 521.375 114.83C523.282 113.01 525.319 111.45 527.485 110.15C528.872 109.283 530.735 108.373 533.075 107.42C535.502 106.38 537.539 105.86 539.185 105.86C541.179 105.86 542.565 106.337 543.345 107.29C544.125 108.157 544.515 109.24 544.515 110.54C544.515 111.58 544.342 112.663 543.995 113.79C543.649 114.83 543.259 115.827 542.825 116.78C542.565 117.3 542.175 117.69 541.655 117.95C541.135 118.123 540.875 118.037 540.875 117.69C540.875 117.257 540.919 116.867 541.005 116.52C541.092 116.173 541.135 115.783 541.135 115.35C541.135 113.703 540.745 112.1 539.965 110.54C539.272 108.893 538.189 108.07 536.715 108.07C535.155 108.07 533.465 108.633 531.645 109.76C529.825 110.8 528.569 111.71 527.875 112.49C525.622 114.83 523.412 117.733 521.245 121.2C519.165 124.667 517.649 127.96 516.695 131.08C516.089 132.9 515.785 134.46 515.785 135.76C515.785 137.233 516.175 138.273 516.955 138.88C517.735 139.487 518.689 139.79 519.815 139.79C520.682 139.79 521.592 139.66 522.545 139.4C523.585 139.14 524.669 138.837 525.795 138.49C528.395 137.623 530.995 136.28 533.595 134.46C536.282 132.553 538.709 130.56 540.875 128.48C543.042 126.313 544.689 124.45 545.815 122.89C545.989 123.063 546.075 123.323 546.075 123.67C546.075 124.103 545.902 124.623 545.555 125.23C545.209 125.75 544.949 126.183 544.775 126.53C542.955 128.957 540.572 131.47 537.625 134.07C534.679 136.583 531.472 138.707 528.005 140.44C524.625 142.173 521.289 143.04 517.995 143.04ZM548.712 142.39C547.845 142.39 547.108 142.217 546.502 141.87C545.895 141.523 545.592 140.873 545.592 139.92C545.592 138.707 545.895 137.277 546.502 135.63C547.195 133.983 547.932 132.337 548.712 130.69C549.492 129.043 550.142 127.7 550.662 126.66C551.095 125.88 551.658 124.667 552.352 123.02C553.132 121.287 553.912 119.51 554.692 117.69C555.558 115.783 556.252 114.18 556.772 112.88C557.378 111.58 557.682 110.93 557.682 110.93C556.902 111.797 555.862 113.01 554.562 114.57C553.348 116.13 552.005 117.777 550.532 119.51C549.145 121.157 547.845 122.717 546.632 124.19C545.505 125.663 544.682 126.747 544.162 127.44C543.902 127.787 543.685 127.96 543.512 127.96C543.338 127.96 543.252 127.743 543.252 127.31C543.252 126.617 543.468 125.967 543.902 125.36C544.942 124.06 546.198 122.5 547.672 120.68C549.145 118.773 550.618 116.867 552.092 114.96C553.652 113.053 554.995 111.363 556.122 109.89C555.428 109.89 554.518 109.933 553.392 110.02C552.352 110.107 551.398 110.237 550.532 110.41C549.665 110.497 549.188 110.54 549.102 110.54C548.668 110.54 548.712 110.193 549.232 109.5C549.752 108.807 550.445 108.113 551.312 107.42C552.178 106.727 552.828 106.38 553.262 106.38C553.348 106.38 554.042 106.423 555.342 106.51C556.642 106.51 557.595 106.51 558.202 106.51C559.935 104.17 561.625 101.483 563.272 98.45C565.005 95.4167 566.695 92.08 568.342 88.44C569.035 88.3533 570.205 87.8767 571.852 87.01C573.585 86.0567 574.928 85.1033 575.882 84.15C576.315 83.7167 576.662 83.5 576.922 83.5C577.442 83.5 577.442 83.8467 576.922 84.54C576.315 85.2333 575.275 86.7067 573.802 88.96C572.328 91.1267 570.682 93.77 568.862 96.89C567.042 99.9233 565.308 103.13 563.662 106.51H574.192C575.145 106.51 575.622 106.64 575.622 106.9C575.622 107.247 574.972 107.593 573.672 107.94C572.198 108.373 570.638 108.633 568.992 108.72C567.432 108.807 565.958 108.98 564.572 109.24C563.272 109.5 562.318 110.063 561.712 110.93C561.192 111.537 560.455 112.837 559.502 114.83C558.548 116.823 557.508 119.12 556.382 121.72C555.342 124.233 554.432 126.79 553.652 129.39C552.872 131.903 552.395 134.027 552.222 135.76V136.28C552.222 136.973 552.438 137.537 552.872 137.97C553.305 138.403 553.738 138.62 554.172 138.62C555.298 138.62 556.728 137.927 558.462 136.54C560.282 135.153 562.145 133.507 564.052 131.6C565.958 129.607 567.605 127.787 568.992 126.14C569.598 125.447 570.118 124.797 570.552 124.19C571.072 123.583 571.375 123.193 571.462 123.02C571.635 123.367 571.722 123.627 571.722 123.8C571.722 124.32 571.548 124.883 571.202 125.49C570.942 126.097 570.638 126.617 570.292 127.05C568.645 129.217 566.652 131.513 564.312 133.94C561.972 136.28 559.458 138.273 556.772 139.92C554.172 141.567 551.485 142.39 548.712 142.39Z" fill="black"/>
</svg>
