<svg width="708" height="247" viewBox="0 0 708 247" fill="none" xmlns="http://www.w3.org/2000/svg">
<g filter="url(#filter0_d_14_64)">
<rect x="4" width="700" height="239" fill="black"/>
<path d="M140.3 144.47C140.127 144.47 139.823 144.383 139.39 144.21C138.957 144.123 138.74 143.95 138.74 143.69C138.74 143.603 138.783 143.517 138.87 143.43C138.957 143.343 139 143.3 139 143.3C139.607 143.127 139.867 143.04 139.78 143.04C139.78 143.127 140.083 143.083 140.69 142.91C142.163 142.39 143.42 141.653 144.46 140.7C145.587 139.66 146.54 138.447 147.32 137.06C151.393 130.3 155.293 123.453 159.02 116.52C162.747 109.5 166.473 102.523 170.2 95.59C171.24 93.77 172.237 91.9067 173.19 90C174.143 88.0933 175.097 86.1867 176.05 84.28C176.483 83.24 176.917 82.2 177.35 81.16C177.87 80.12 178.433 79.1233 179.04 78.17C179.733 76.9567 180.817 75.9167 182.29 75.05C183.85 74.0967 185.323 73.4033 186.71 72.97H183.59C181.857 72.97 179.473 73.1 176.44 73.36C173.493 73.5333 170.373 73.88 167.08 74.4C163.787 74.92 160.84 75.7 158.24 76.74C155.727 77.78 153.993 79.1667 153.04 80.9C152.173 82.46 151.74 83.9767 151.74 85.45C151.74 87.1833 152.13 88.3533 152.91 88.96C153.69 89.5667 154.08 89.9567 154.08 90.13C154.08 90.3033 153.95 90.4767 153.69 90.65C153.43 90.8233 153.213 90.91 153.04 90.91C152.52 90.91 151.87 90.39 151.09 89.35C150.31 88.31 149.573 87.1833 148.88 85.97C148.273 84.67 147.883 83.8033 147.71 83.37C147.45 82.4167 147.32 81.4633 147.32 80.51C147.32 78.17 148.1 76.3933 149.66 75.18C151.307 73.88 153.3 72.97 155.64 72.45C157.98 71.93 160.32 71.6267 162.66 71.54C165.087 71.3667 167.08 71.28 168.64 71.28C172.973 71.28 177.307 71.1933 181.64 71.02C185.973 70.76 190.263 70.63 194.51 70.63C198.583 70.63 202.57 70.9333 206.47 71.54C210.457 72.06 214.053 73.1433 217.26 74.79C220.467 76.4367 223.023 78.7767 224.93 81.81C226.923 84.8433 227.92 88.83 227.92 93.77C227.92 98.2767 227.053 102.913 225.32 107.68C223.673 112.36 221.593 116.563 219.08 120.29C208.507 136.15 193.687 144.08 174.62 144.08C171.673 144.08 168.64 143.777 165.52 143.17C162.487 142.563 159.627 141.567 156.94 140.18C156.333 139.833 155.683 139.573 154.99 139.4C154.383 139.14 153.733 139.01 153.04 139.01C151.567 139.01 150.093 139.487 148.62 140.44C147.147 141.307 145.717 142.173 144.33 143.04C142.943 143.993 141.6 144.47 140.3 144.47ZM173.06 142.26C179.56 142.26 185.627 141.003 191.26 138.49C196.893 135.977 201.833 132.467 206.08 127.96C210.327 123.367 213.663 118.123 216.09 112.23C217.217 109.457 218.127 106.553 218.82 103.52C219.6 100.487 219.99 97.4967 219.99 94.55C219.99 87.79 217.91 82.59 213.75 78.95C209.677 75.2233 204.303 73.36 197.63 73.36C195.983 73.36 194.25 73.5333 192.43 73.88C190.697 74.2267 189.267 75.05 188.14 76.35C187.013 77.7367 185.93 79.2533 184.89 80.9C183.937 82.5467 182.983 84.15 182.03 85.71C180.037 89.1767 178.13 92.7733 176.31 96.5C174.577 100.14 172.8 103.737 170.98 107.29C168.12 112.75 165.303 118.253 162.53 123.8C161.923 125.013 161.273 126.27 160.58 127.57C159.973 128.783 159.367 129.997 158.76 131.21C158.587 131.643 158.413 132.12 158.24 132.64C158.067 133.073 157.98 133.593 157.98 134.2C157.98 135.327 158.327 136.28 159.02 137.06C159.713 137.84 160.45 138.577 161.23 139.27C162.877 140.483 164.783 141.307 166.95 141.74C169.117 142.087 171.153 142.26 173.06 142.26ZM232.207 143.04C228.654 143.04 226.184 142.347 224.797 140.96C223.41 139.573 222.717 137.883 222.717 135.89C222.717 133.377 223.367 130.69 224.667 127.83C226.054 124.97 227.354 122.543 228.567 120.55C229.954 118.47 231.817 116.303 234.157 114.05C236.497 111.797 239.054 109.89 241.827 108.33C244.6 106.77 247.287 105.99 249.887 105.99C252.14 105.99 253.7 106.553 254.567 107.68C255.434 108.72 255.867 109.977 255.867 111.45C255.867 114.137 255.044 116.347 253.397 118.08C251.837 119.813 249.887 121.243 247.547 122.37C245.207 123.41 242.954 124.277 240.787 124.97C239.487 125.317 237.97 125.663 236.237 126.01C234.504 126.357 232.857 126.53 231.297 126.53C230.69 128.09 230.214 129.607 229.867 131.08C229.52 132.553 229.347 133.897 229.347 135.11C229.347 136.583 229.694 137.797 230.387 138.75C231.167 139.703 232.424 140.18 234.157 140.18C234.85 140.18 235.674 140.093 236.627 139.92C237.58 139.747 238.62 139.487 239.747 139.14C242.347 138.273 244.904 136.887 247.417 134.98C249.93 133.073 252.227 131.037 254.307 128.87C256.474 126.617 258.12 124.753 259.247 123.28C259.507 123.54 259.637 123.843 259.637 124.19C259.637 124.623 259.334 125.317 258.727 126.27C256.994 128.697 254.74 131.21 251.967 133.81C249.194 136.41 246.117 138.62 242.737 140.44C239.357 142.173 235.847 143.04 232.207 143.04ZM232.337 123.93C233.464 124.017 234.72 124.017 236.107 123.93C237.58 123.757 239.01 123.453 240.397 123.02C243.95 121.98 246.507 120.333 248.067 118.08C249.714 115.74 250.537 113.66 250.537 111.84C250.537 110.8 250.32 109.933 249.887 109.24C249.454 108.547 248.76 108.2 247.807 108.2C245.294 108.2 243.04 109.153 241.047 111.06C239.054 112.88 237.32 115.003 235.847 117.43C234.374 119.857 233.204 122.023 232.337 123.93ZM267.83 142.78C266.617 142.78 265.577 142.347 264.71 141.48C263.843 140.613 263.41 139.097 263.41 136.93C263.41 135.023 263.54 132.77 263.8 130.17C264.147 127.57 264.623 124.927 265.23 122.24C265.837 119.467 266.53 117.04 267.31 114.96C265.837 117.127 264.19 119.38 262.37 121.72C260.55 123.973 259.033 125.88 257.82 127.44C257.56 127.787 257.343 127.96 257.17 127.96C256.997 127.96 256.91 127.743 256.91 127.31C256.91 126.617 257.127 125.967 257.56 125.36C259.38 122.847 261.417 119.987 263.67 116.78C266.01 113.573 268.003 110.67 269.65 108.07C270.603 107.897 271.73 107.637 273.03 107.29C274.417 106.943 275.413 106.467 276.02 105.86C276.453 105.6 276.713 105.47 276.8 105.47C277.06 105.47 277.19 105.643 277.19 105.99C277.19 106.25 277.06 106.553 276.8 106.9C276.02 108.027 275.153 109.76 274.2 112.1C273.333 114.44 272.423 117.04 271.47 119.9C270.603 122.76 269.867 125.577 269.26 128.35C268.74 131.037 268.48 133.333 268.48 135.24C268.48 136.627 268.697 137.623 269.13 138.23C269.563 138.75 270.127 139.01 270.82 139.01C271.773 139.01 272.9 138.533 274.2 137.58C275.587 136.627 276.757 135.63 277.71 134.59C278.923 133.29 280.267 131.557 281.74 129.39C283.3 127.223 284.73 124.927 286.03 122.5C287.417 120.073 288.457 117.863 289.15 115.87C289.67 114.483 290.017 113.313 290.19 112.36C290.363 111.32 290.45 110.497 290.45 109.89C290.45 108.85 290.32 108.113 290.06 107.68C289.8 107.247 289.583 106.987 289.41 106.9C288.89 106.727 288.63 106.51 288.63 106.25C288.63 106.077 288.803 105.947 289.15 105.86C289.497 105.687 289.843 105.687 290.19 105.86C291.317 106.207 292.443 106.727 293.57 107.42C294.697 108.027 295.26 109.24 295.26 111.06C295.26 111.493 295.217 112.013 295.13 112.62C295.043 113.14 294.87 113.747 294.61 114.44C294.09 115.827 293.007 117.777 291.36 120.29C289.8 122.803 287.98 125.447 285.9 128.22C283.82 130.993 281.74 133.507 279.66 135.76C277.58 138.013 275.76 139.617 274.2 140.57C273.16 141.177 272.077 141.697 270.95 142.13C269.823 142.563 268.783 142.78 267.83 142.78ZM323.203 145.77C318.61 145.77 314.19 145.077 309.943 143.69C305.783 142.39 302.403 140.18 299.803 137.06C297.203 133.94 295.903 129.737 295.903 124.45C295.903 118.817 296.986 113.313 299.153 107.94C301.32 102.567 304.223 97.5833 307.863 92.99C311.503 88.31 315.576 84.28 320.083 80.9C324.07 77.8667 328.663 75.3967 333.863 73.49C339.15 71.5833 344.393 70.63 349.593 70.63C351.76 70.63 353.796 70.8033 355.703 71.15C357.61 71.41 359.56 72.0167 361.553 72.97C363.286 73.75 364.673 74.7467 365.713 75.96C366.753 77.0867 367.273 78.3867 367.273 79.86C367.273 80.0333 367.273 80.25 367.273 80.51C367.273 80.77 367.23 80.9867 367.143 81.16C366.796 82.5467 365.973 84.15 364.673 85.97C363.46 87.7033 362.506 89.5233 361.813 91.43C361.726 91.7767 361.25 92.08 360.383 92.34C359.516 92.5133 359.17 92.4267 359.343 92.08C360.036 90.9533 360.556 89.5667 360.903 87.92C361.336 86.2733 361.553 84.6267 361.553 82.98C361.553 81.7667 361.423 80.64 361.163 79.6C360.99 78.4733 360.643 77.52 360.123 76.74C359.256 75.18 357.913 74.0967 356.093 73.49C354.273 72.8833 352.323 72.58 350.243 72.58C348.25 72.58 346.256 72.7967 344.263 73.23C342.27 73.6633 340.536 74.14 339.063 74.66C334.036 76.48 329.226 79.34 324.633 83.24C320.56 86.7933 316.92 90.91 313.713 95.59C310.593 100.27 308.123 105.08 306.303 110.02C304.483 114.96 303.573 119.683 303.573 124.19C303.573 128.783 304.57 132.423 306.563 135.11C308.556 137.797 311.156 139.703 314.363 140.83C317.57 141.957 321.036 142.52 324.763 142.52C328.056 142.52 331.306 142.173 334.513 141.48C337.806 140.787 340.796 139.92 343.483 138.88C348.076 137.147 352.193 135.023 355.833 132.51C359.56 129.997 363.026 126.747 366.233 122.76C366.666 122.327 366.97 122.11 367.143 122.11C367.403 122.11 367.533 122.283 367.533 122.63C367.533 123.323 367.186 124.147 366.493 125.1C363.546 129.087 360.21 132.423 356.483 135.11C352.756 137.797 348.77 140.007 344.523 141.74C341.663 142.867 338.326 143.82 334.513 144.6C330.786 145.38 327.016 145.77 323.203 145.77ZM366.018 142.26C364.631 142.26 363.374 142 362.248 141.48C361.208 140.873 360.688 139.617 360.688 137.71C360.688 134.677 361.468 131.643 363.028 128.61C364.588 125.49 366.191 122.76 367.838 120.42C369.311 118.427 370.958 116.563 372.778 114.83C374.684 113.01 376.721 111.45 378.888 110.15C380.274 109.283 382.138 108.373 384.478 107.42C386.904 106.38 388.941 105.86 390.588 105.86C391.974 105.86 393.188 106.25 394.228 107.03C395.268 107.723 395.788 109.023 395.788 110.93C395.788 113.877 395.008 116.91 393.448 120.03C391.974 123.063 390.414 125.75 388.768 128.09C387.988 129.13 387.208 130.127 386.428 131.08C385.648 131.947 384.781 132.857 383.828 133.81C387.034 133.81 389.981 132.9 392.668 131.08C395.354 129.173 397.694 126.877 399.688 124.19L399.948 123.93C400.208 123.93 400.338 124.19 400.338 124.71C400.338 125.317 400.164 125.88 399.818 126.4C398.084 128.827 395.918 130.993 393.318 132.9C390.718 134.72 387.771 135.63 384.478 135.63C384.131 135.63 383.784 135.63 383.438 135.63C383.091 135.63 382.744 135.587 382.398 135.5C377.544 140.007 372.084 142.26 366.018 142.26ZM369.398 140.05C370.611 140.05 371.911 139.617 373.298 138.75C374.771 137.883 375.898 137.06 376.678 136.28C378.151 134.807 379.494 133.247 380.708 131.6C381.921 129.867 383.048 128.133 384.088 126.4C385.301 124.32 386.514 121.85 387.728 118.99C388.941 116.13 389.548 113.443 389.548 110.93C389.548 108.937 388.854 107.94 387.468 107.94C386.341 107.94 384.954 108.417 383.308 109.37C381.748 110.323 380.578 111.19 379.798 111.97C376.851 115.003 374.381 118.297 372.388 121.85C371.261 123.843 370.048 126.183 368.748 128.87C367.448 131.557 366.798 134.027 366.798 136.28C366.798 136.627 366.798 136.973 366.798 137.32C366.884 137.58 366.971 137.883 367.058 138.23C367.404 139.443 368.184 140.05 369.398 140.05ZM399.122 143.95C398.775 143.95 398.775 143.56 399.122 142.78C399.555 142 399.945 141.133 400.292 140.18C400.725 139.227 401.159 138.187 401.592 137.06C402.459 134.98 403.412 132.64 404.452 130.04C405.492 127.44 406.489 124.927 407.442 122.5C408.395 119.987 409.219 117.863 409.912 116.13C410.692 114.31 411.212 113.14 411.472 112.62C410.259 113.92 408.785 115.567 407.052 117.56C405.405 119.467 403.845 121.33 402.372 123.15C400.899 124.97 399.772 126.4 398.992 127.44C398.732 127.787 398.515 127.96 398.342 127.96C398.169 127.96 398.082 127.743 398.082 127.31C398.082 126.617 398.299 125.967 398.732 125.36C400.379 123.28 402.199 120.94 404.192 118.34C406.272 115.74 408.135 113.357 409.782 111.19C411.429 108.937 412.469 107.463 412.902 106.77C413.855 106.597 415.242 106.337 417.062 105.99C418.969 105.643 420.269 105.167 420.962 104.56C421.222 104.3 421.482 104.17 421.742 104.17C421.915 104.17 422.002 104.343 422.002 104.69C422.089 104.95 422.002 105.253 421.742 105.6C421.222 106.207 420.312 107.637 419.012 109.89C417.799 112.057 416.455 114.483 414.982 117.17C413.595 119.857 412.295 122.283 411.082 124.45C412.122 123.063 413.249 121.72 414.462 120.42C415.675 119.12 416.845 117.863 417.972 116.65C419.012 115.61 420.442 114.31 422.262 112.75C424.082 111.19 425.989 109.76 427.982 108.46C429.975 107.16 431.709 106.423 433.182 106.25C433.529 106.163 433.832 106.12 434.092 106.12C434.439 106.12 434.699 106.12 434.872 106.12C436.779 106.12 437.732 106.813 437.732 108.2C437.732 109.24 437.169 110.627 436.042 112.36C435.435 113.313 434.482 114.917 433.182 117.17C431.969 119.337 430.712 121.72 429.412 124.32C428.199 126.833 427.115 129.217 426.162 131.47C425.295 133.637 424.862 135.24 424.862 136.28C424.862 137.493 425.469 138.1 426.682 138.1C428.155 138.1 429.759 137.363 431.492 135.89C433.312 134.417 435.262 132.553 437.342 130.3C439.422 127.96 441.502 125.49 443.582 122.89C443.755 123.063 443.842 123.367 443.842 123.8C443.842 124.407 443.625 125.013 443.192 125.62C442.845 126.14 442.499 126.617 442.152 127.05C441.285 128.177 440.115 129.607 438.642 131.34C437.255 132.987 435.825 134.633 434.352 136.28C432.879 137.84 431.535 139.097 430.322 140.05C429.455 140.657 428.329 141.307 426.942 142C425.555 142.693 424.169 143.04 422.782 143.04C421.222 143.04 420.139 142.65 419.532 141.87C418.925 141.003 418.622 139.963 418.622 138.75C418.622 137.363 418.882 135.89 419.402 134.33C419.922 132.77 420.485 131.297 421.092 129.91C421.785 128.437 422.305 127.353 422.652 126.66C424.212 123.627 425.642 120.767 426.942 118.08C428.242 115.393 429.152 113.487 429.672 112.36C429.932 111.84 430.062 111.407 430.062 111.06C430.062 110.453 429.585 110.41 428.632 110.93C427.679 111.45 426.509 112.23 425.122 113.27C423.822 114.31 422.609 115.35 421.482 116.39C420.355 117.343 419.619 117.993 419.272 118.34C416.065 121.72 413.249 125.49 410.822 129.65C408.482 133.723 406.489 137.927 404.842 142.26C403.715 142.347 402.589 142.65 401.462 143.17C400.335 143.69 399.555 143.95 399.122 143.95ZM442.032 143.95C441.685 143.95 441.685 143.56 442.032 142.78C442.465 142 442.855 141.133 443.202 140.18C443.635 139.227 444.069 138.187 444.502 137.06C445.369 134.98 446.322 132.64 447.362 130.04C448.402 127.44 449.399 124.927 450.352 122.5C451.305 119.987 452.129 117.863 452.822 116.13C453.602 114.31 454.122 113.14 454.382 112.62C453.169 113.92 451.695 115.567 449.962 117.56C448.315 119.467 446.755 121.33 445.282 123.15C443.809 124.97 442.682 126.4 441.902 127.44C441.642 127.787 441.425 127.96 441.252 127.96C441.079 127.96 440.992 127.743 440.992 127.31C440.992 126.617 441.209 125.967 441.642 125.36C443.289 123.28 445.109 120.94 447.102 118.34C449.182 115.74 451.045 113.357 452.692 111.19C454.339 108.937 455.379 107.463 455.812 106.77C456.765 106.597 458.152 106.337 459.972 105.99C461.879 105.643 463.179 105.167 463.872 104.56C464.132 104.3 464.392 104.17 464.652 104.17C464.825 104.17 464.912 104.343 464.912 104.69C464.999 104.95 464.912 105.253 464.652 105.6C464.132 106.207 463.222 107.637 461.922 109.89C460.709 112.057 459.365 114.483 457.892 117.17C456.505 119.857 455.205 122.283 453.992 124.45C455.032 123.063 456.159 121.72 457.372 120.42C458.585 119.12 459.755 117.863 460.882 116.65C461.922 115.61 463.352 114.31 465.172 112.75C466.992 111.19 468.899 109.76 470.892 108.46C472.885 107.16 474.619 106.423 476.092 106.25C476.439 106.163 476.742 106.12 477.002 106.12C477.349 106.12 477.609 106.12 477.782 106.12C479.689 106.12 480.642 106.813 480.642 108.2C480.642 109.24 480.079 110.627 478.952 112.36C478.345 113.313 477.392 114.917 476.092 117.17C474.879 119.337 473.622 121.72 472.322 124.32C471.109 126.833 470.025 129.217 469.072 131.47C468.205 133.637 467.772 135.24 467.772 136.28C467.772 137.493 468.379 138.1 469.592 138.1C471.065 138.1 472.669 137.363 474.402 135.89C476.222 134.417 478.172 132.553 480.252 130.3C482.332 127.96 484.412 125.49 486.492 122.89C486.665 123.063 486.752 123.367 486.752 123.8C486.752 124.407 486.535 125.013 486.102 125.62C485.755 126.14 485.409 126.617 485.062 127.05C484.195 128.177 483.025 129.607 481.552 131.34C480.165 132.987 478.735 134.633 477.262 136.28C475.789 137.84 474.445 139.097 473.232 140.05C472.365 140.657 471.239 141.307 469.852 142C468.465 142.693 467.079 143.04 465.692 143.04C464.132 143.04 463.049 142.65 462.442 141.87C461.835 141.003 461.532 139.963 461.532 138.75C461.532 137.363 461.792 135.89 462.312 134.33C462.832 132.77 463.395 131.297 464.002 129.91C464.695 128.437 465.215 127.353 465.562 126.66C467.122 123.627 468.552 120.767 469.852 118.08C471.152 115.393 472.062 113.487 472.582 112.36C472.842 111.84 472.972 111.407 472.972 111.06C472.972 110.453 472.495 110.41 471.542 110.93C470.589 111.45 469.419 112.23 468.032 113.27C466.732 114.31 465.519 115.35 464.392 116.39C463.265 117.343 462.529 117.993 462.182 118.34C458.975 121.72 456.159 125.49 453.732 129.65C451.392 133.723 449.399 137.927 447.752 142.26C446.625 142.347 445.499 142.65 444.372 143.17C443.245 143.69 442.465 143.95 442.032 143.95ZM491.572 143.04C488.019 143.04 485.549 142.347 484.162 140.96C482.776 139.573 482.082 137.883 482.082 135.89C482.082 133.377 482.732 130.69 484.032 127.83C485.419 124.97 486.719 122.543 487.932 120.55C489.319 118.47 491.182 116.303 493.522 114.05C495.862 111.797 498.419 109.89 501.192 108.33C503.966 106.77 506.652 105.99 509.252 105.99C511.506 105.99 513.066 106.553 513.932 107.68C514.799 108.72 515.232 109.977 515.232 111.45C515.232 114.137 514.409 116.347 512.762 118.08C511.202 119.813 509.252 121.243 506.912 122.37C504.572 123.41 502.319 124.277 500.152 124.97C498.852 125.317 497.336 125.663 495.602 126.01C493.869 126.357 492.222 126.53 490.662 126.53C490.056 128.09 489.579 129.607 489.232 131.08C488.886 132.553 488.712 133.897 488.712 135.11C488.712 136.583 489.059 137.797 489.752 138.75C490.532 139.703 491.789 140.18 493.522 140.18C494.216 140.18 495.039 140.093 495.992 139.92C496.946 139.747 497.986 139.487 499.112 139.14C501.712 138.273 504.269 136.887 506.782 134.98C509.296 133.073 511.592 131.037 513.672 128.87C515.839 126.617 517.486 124.753 518.612 123.28C518.872 123.54 519.002 123.843 519.002 124.19C519.002 124.623 518.699 125.317 518.092 126.27C516.359 128.697 514.106 131.21 511.332 133.81C508.559 136.41 505.482 138.62 502.102 140.44C498.722 142.173 495.212 143.04 491.572 143.04ZM491.702 123.93C492.829 124.017 494.086 124.017 495.472 123.93C496.946 123.757 498.376 123.453 499.762 123.02C503.316 121.98 505.872 120.333 507.432 118.08C509.079 115.74 509.902 113.66 509.902 111.84C509.902 110.8 509.686 109.933 509.252 109.24C508.819 108.547 508.126 108.2 507.172 108.2C504.659 108.2 502.406 109.153 500.412 111.06C498.419 112.88 496.686 115.003 495.212 117.43C493.739 119.857 492.569 122.023 491.702 123.93ZM521.995 143.04C518.789 143.04 516.535 142.433 515.235 141.22C513.935 140.007 513.285 138.447 513.285 136.54C513.285 134.027 514.109 131.253 515.755 128.22C517.402 125.1 518.962 122.5 520.435 120.42C521.909 118.427 523.555 116.563 525.375 114.83C527.282 113.01 529.319 111.45 531.485 110.15C532.872 109.283 534.735 108.373 537.075 107.42C539.502 106.38 541.539 105.86 543.185 105.86C545.179 105.86 546.565 106.337 547.345 107.29C548.125 108.157 548.515 109.24 548.515 110.54C548.515 111.58 548.342 112.663 547.995 113.79C547.649 114.83 547.259 115.827 546.825 116.78C546.565 117.3 546.175 117.69 545.655 117.95C545.135 118.123 544.875 118.037 544.875 117.69C544.875 117.257 544.919 116.867 545.005 116.52C545.092 116.173 545.135 115.783 545.135 115.35C545.135 113.703 544.745 112.1 543.965 110.54C543.272 108.893 542.189 108.07 540.715 108.07C539.155 108.07 537.465 108.633 535.645 109.76C533.825 110.8 532.569 111.71 531.875 112.49C529.622 114.83 527.412 117.733 525.245 121.2C523.165 124.667 521.649 127.96 520.695 131.08C520.089 132.9 519.785 134.46 519.785 135.76C519.785 137.233 520.175 138.273 520.955 138.88C521.735 139.487 522.689 139.79 523.815 139.79C524.682 139.79 525.592 139.66 526.545 139.4C527.585 139.14 528.669 138.837 529.795 138.49C532.395 137.623 534.995 136.28 537.595 134.46C540.282 132.553 542.709 130.56 544.875 128.48C547.042 126.313 548.689 124.45 549.815 122.89C549.989 123.063 550.075 123.323 550.075 123.67C550.075 124.103 549.902 124.623 549.555 125.23C549.209 125.75 548.949 126.183 548.775 126.53C546.955 128.957 544.572 131.47 541.625 134.07C538.679 136.583 535.472 138.707 532.005 140.44C528.625 142.173 525.289 143.04 521.995 143.04ZM552.712 142.39C551.845 142.39 551.108 142.217 550.502 141.87C549.895 141.523 549.592 140.873 549.592 139.92C549.592 138.707 549.895 137.277 550.502 135.63C551.195 133.983 551.932 132.337 552.712 130.69C553.492 129.043 554.142 127.7 554.662 126.66C555.095 125.88 555.658 124.667 556.352 123.02C557.132 121.287 557.912 119.51 558.692 117.69C559.558 115.783 560.252 114.18 560.772 112.88C561.378 111.58 561.682 110.93 561.682 110.93C560.902 111.797 559.862 113.01 558.562 114.57C557.348 116.13 556.005 117.777 554.532 119.51C553.145 121.157 551.845 122.717 550.632 124.19C549.505 125.663 548.682 126.747 548.162 127.44C547.902 127.787 547.685 127.96 547.512 127.96C547.338 127.96 547.252 127.743 547.252 127.31C547.252 126.617 547.468 125.967 547.902 125.36C548.942 124.06 550.198 122.5 551.672 120.68C553.145 118.773 554.618 116.867 556.092 114.96C557.652 113.053 558.995 111.363 560.122 109.89C559.428 109.89 558.518 109.933 557.392 110.02C556.352 110.107 555.398 110.237 554.532 110.41C553.665 110.497 553.188 110.54 553.102 110.54C552.668 110.54 552.712 110.193 553.232 109.5C553.752 108.807 554.445 108.113 555.312 107.42C556.178 106.727 556.828 106.38 557.262 106.38C557.348 106.38 558.042 106.423 559.342 106.51C560.642 106.51 561.595 106.51 562.202 106.51C563.935 104.17 565.625 101.483 567.272 98.45C569.005 95.4167 570.695 92.08 572.342 88.44C573.035 88.3533 574.205 87.8767 575.852 87.01C577.585 86.0567 578.928 85.1033 579.882 84.15C580.315 83.7167 580.662 83.5 580.922 83.5C581.442 83.5 581.442 83.8467 580.922 84.54C580.315 85.2333 579.275 86.7067 577.802 88.96C576.328 91.1267 574.682 93.77 572.862 96.89C571.042 99.9233 569.308 103.13 567.662 106.51H578.192C579.145 106.51 579.622 106.64 579.622 106.9C579.622 107.247 578.972 107.593 577.672 107.94C576.198 108.373 574.638 108.633 572.992 108.72C571.432 108.807 569.958 108.98 568.572 109.24C567.272 109.5 566.318 110.063 565.712 110.93C565.192 111.537 564.455 112.837 563.502 114.83C562.548 116.823 561.508 119.12 560.382 121.72C559.342 124.233 558.432 126.79 557.652 129.39C556.872 131.903 556.395 134.027 556.222 135.76V136.28C556.222 136.973 556.438 137.537 556.872 137.97C557.305 138.403 557.738 138.62 558.172 138.62C559.298 138.62 560.728 137.927 562.462 136.54C564.282 135.153 566.145 133.507 568.052 131.6C569.958 129.607 571.605 127.787 572.992 126.14C573.598 125.447 574.118 124.797 574.552 124.19C575.072 123.583 575.375 123.193 575.462 123.02C575.635 123.367 575.722 123.627 575.722 123.8C575.722 124.32 575.548 124.883 575.202 125.49C574.942 126.097 574.638 126.617 574.292 127.05C572.645 129.217 570.652 131.513 568.312 133.94C565.972 136.28 563.458 138.273 560.772 139.92C558.172 141.567 555.485 142.39 552.712 142.39Z" fill="white"/>
</g>
<defs>
<filter id="filter0_d_14_64" x="0" y="0" width="708" height="247" filterUnits="userSpaceOnUse" color-interpolation-filters="sRGB">
<feFlood flood-opacity="0" result="BackgroundImageFix"/>
<feColorMatrix in="SourceAlpha" type="matrix" values="0 0 0 0 0 0 0 0 0 0 0 0 0 0 0 0 0 0 127 0" result="hardAlpha"/>
<feOffset dy="4"/>
<feGaussianBlur stdDeviation="2"/>
<feComposite in2="hardAlpha" operator="out"/>
<feColorMatrix type="matrix" values="0 0 0 0 0 0 0 0 0 0 0 0 0 0 0 0 0 0 0.25 0"/>
<feBlend mode="normal" in2="BackgroundImageFix" result="effect1_dropShadow_14_64"/>
<feBlend mode="normal" in="SourceGraphic" in2="effect1_dropShadow_14_64" result="shape"/>
</filter>
</defs>
</svg>
